# xmcd
#
# Track frame offsets: 
#        150
#        15840
#        30840
#
# Disc length: 676 seconds
#
# Revision: 4
# Processed by: cddbd v1.5.1PL2 Copyright (c) Steve Scherf et al.
# Submitted via: ExactAudioCopy v0.95b3
#
DISCID=0c02a203
DTITLE=Louie Louie - Sittin' In The Lap Of Luxury [CD Single)
DYEAR=1990
DGENRE=Pop
TTITLE0=Sittin' In The Lap Of Luxury (Keith Cohen Mix/Radio Recommende
TTITLE0=d)
TTITLE1=Sittin' In The Lap Of Luxury (Shep Pettibone Mix)
TTITLE2=Sittin' In The Lap Of Luxury (Shep's Jam/Louie's Fav II)
EXTD=
EXTT0=
EXTT1=
EXTT2=
PLAYORDER=
